<svg width="128" height="56" viewBox="0 0 128 56" fill="none" xmlns="http://www.w3.org/2000/svg">
<path d="M31.4739 12.6157C31.3734 11.3566 30.9023 10.3746 30.0606 9.66951C29.2314 8.96444 27.9689 8.61191 26.2729 8.61191C25.1925 8.61191 24.3068 8.74411 23.6158 9.00851C22.9374 9.26032 22.4349 9.60656 22.1083 10.0472C21.7817 10.4879 21.6121 10.9915 21.5995 11.5581C21.5744 12.0239 21.656 12.4457 21.8445 12.8234C22.0455 13.1886 22.3596 13.5222 22.7867 13.8244C23.2138 14.114 23.7603 14.3784 24.4261 14.6176C25.092 14.8568 25.8834 15.0708 26.8005 15.2597L29.9664 15.9396C32.1021 16.3928 33.93 16.9909 35.4501 17.7337C36.9702 18.4766 38.2139 19.3516 39.1812 20.3589C40.1486 21.3535 40.8584 22.4741 41.3106 23.7205C41.7755 24.967 42.0142 26.3267 42.0267 27.7998C42.0142 30.3431 41.3797 32.4961 40.1235 34.2588C38.8672 36.0214 37.0707 37.3623 34.734 38.2814C32.4099 39.2005 29.6146 39.6601 26.3483 39.6601C22.994 39.6601 20.0668 39.1628 17.5668 38.1681C15.0794 37.1735 13.1447 35.6437 11.7628 33.5789C10.3934 31.5014 9.70245 28.8449 9.68989 25.6091H19.6397C19.7025 26.7926 19.9977 27.7872 20.5254 28.593C21.053 29.3988 21.7942 30.0095 22.749 30.425C23.7163 30.8404 24.8658 31.0482 26.1975 31.0482C27.3156 31.0482 28.2515 30.9097 29.0053 30.6327C29.7591 30.3557 30.3307 29.9717 30.7201 29.4807C31.1096 28.9896 31.3106 28.4294 31.3232 27.7998C31.3106 27.2081 31.1159 26.6919 30.739 26.2512C30.3747 25.7979 29.7716 25.395 28.9299 25.0425C28.0882 24.6774 26.9513 24.3375 25.5191 24.0227L21.6749 23.1917C18.2578 22.4489 15.563 21.2087 13.5907 19.4712C11.6309 17.7211 10.6572 15.3352 10.6698 12.3135C10.6572 9.85837 11.3105 7.71169 12.6296 5.87347C13.9613 4.02267 15.8017 2.58105 18.151 1.54863C20.5128 0.516211 23.2201 0 26.2729 0C29.3885 0 32.0832 0.522506 34.3571 1.56752C36.631 2.61253 38.3835 4.08562 39.6147 5.98679C40.8584 7.87536 41.4865 10.085 41.4991 12.6157H31.4739Z" fill="white"/>
<path d="M82.0426 15.0331H71.4144C71.3391 14.1517 71.1381 13.3522 70.8114 12.6346C70.4974 11.9169 70.0577 11.3 69.4923 10.7838C68.9396 10.255 68.2674 9.85207 67.476 9.57508C66.6845 9.2855 65.7863 9.14071 64.7812 9.14071C63.0224 9.14071 61.5337 9.56878 60.3151 10.4249C59.1091 11.2811 58.192 12.5087 57.5639 14.1077C56.9483 15.7067 56.6405 17.6267 56.6405 19.8678C56.6405 22.2348 56.9546 24.2178 57.5827 25.8168C58.2234 27.4032 59.1468 28.5993 60.3528 29.4051C61.5589 30.1983 63.0099 30.5949 64.7059 30.5949C65.6732 30.5949 66.54 30.4753 67.3064 30.2361C68.0727 29.9843 68.7385 29.6255 69.3039 29.1596C69.8692 28.6938 70.3278 28.1335 70.6795 27.4788C71.0438 26.8115 71.2888 26.0623 71.4144 25.2314L82.0426 25.3069C81.917 26.9437 81.4585 28.6119 80.667 30.3116C79.8755 31.9988 78.7512 33.56 77.2939 34.9953C75.8491 36.418 74.0589 37.5638 71.9232 38.4325C69.7876 39.3013 67.3064 39.7356 64.4797 39.7356C60.937 39.7356 57.7586 38.9739 54.9445 37.4505C52.143 35.927 49.9256 33.6859 48.2925 30.7271C46.6719 27.7684 45.8616 24.1486 45.8616 19.8678C45.8616 15.5619 46.6907 11.9358 48.349 8.98962C50.0073 6.03085 52.2435 3.79604 55.0576 2.28518C57.8717 0.761726 61.0124 0 64.4797 0C66.9169 0 69.1594 0.333648 71.2072 1.00094C73.2549 1.66824 75.0514 2.64401 76.5966 3.92824C78.1419 5.19988 79.3856 6.7674 80.3278 8.63079C81.27 10.4942 81.8416 12.6283 82.0426 15.0331Z" fill="white"/>
<path d="M107.6 12.6157C107.5 11.3566 107.029 10.3746 106.187 9.66951C105.358 8.96444 104.095 8.61191 102.399 8.61191C101.319 8.61191 100.433 8.74411 99.7422 9.00851C99.0638 9.26032 98.5612 9.60656 98.2346 10.0472C97.908 10.4879 97.7384 10.9915 97.7258 11.5581C97.7007 12.0239 97.7824 12.4457 97.9708 12.8234C98.1718 13.1886 98.4859 13.5222 98.913 13.8244C99.3401 14.114 99.8866 14.3784 100.552 14.6176C101.218 14.8568 102.01 15.0708 102.927 15.2597L106.093 15.9396C108.228 16.3928 110.056 16.9909 111.576 17.7337C113.096 18.4766 114.34 19.3516 115.308 20.3589C116.275 21.3535 116.985 22.4741 117.437 23.7205C117.902 24.967 118.14 26.3267 118.153 27.7998C118.14 30.3431 117.506 32.4961 116.25 34.2588C114.993 36.0214 113.197 37.3623 110.86 38.2814C108.536 39.2005 105.741 39.6601 102.475 39.6601C99.1203 39.6601 96.1931 39.1628 93.6931 38.1681C91.2057 37.1735 89.271 35.6437 87.8891 33.5789C86.5197 31.5014 85.8288 28.8449 85.8162 25.6091H95.766C95.8288 26.7926 96.1241 27.7872 96.6517 28.593C97.1793 29.3988 97.9205 30.0095 98.8753 30.425C99.8427 30.8404 100.992 31.0482 102.324 31.0482C103.442 31.0482 104.378 30.9097 105.132 30.6327C105.885 30.3557 106.457 29.9717 106.846 29.4807C107.236 28.9896 107.437 28.4294 107.449 27.7998C107.437 27.2081 107.242 26.6919 106.865 26.2512C106.501 25.7979 105.898 25.395 105.056 25.0425C104.215 24.6774 103.078 24.3375 101.645 24.0227L97.8012 23.1917C94.3841 22.4489 91.6894 21.2087 89.717 19.4712C87.7572 17.7211 86.7836 15.3352 86.7961 12.3135C86.7836 9.85837 87.4368 7.71169 88.7559 5.87347C90.0876 4.02267 91.928 2.58105 94.2773 1.54863C96.6391 0.516211 99.3464 0 102.399 0C105.515 0 108.21 0.522506 110.483 1.56752C112.757 2.61253 114.51 4.08562 115.741 5.98679C116.985 7.87536 117.613 10.085 117.625 12.6157H107.6Z" fill="white"/>
<path d="M2.88259 56C3.44399 56 3.93522 55.9062 4.35628 55.7187C4.77733 55.5311 5.10301 55.2678 5.33333 54.9288C5.56725 54.5862 5.68421 54.1877 5.68421 53.7332V53.7224C5.68421 53.3545 5.60684 53.0353 5.45209 52.7648C5.29735 52.4943 5.05263 52.2653 4.71795 52.0778C4.38686 51.8866 3.95322 51.7297 3.417 51.6071L2.60189 51.4232C2.01889 51.2933 1.59604 51.1148 1.33333 50.8876C1.07422 50.6567 0.944669 50.3682 0.944669 50.022V50.0166C0.944669 49.7244 1.02744 49.472 1.19298 49.2592C1.35852 49.0428 1.58345 48.8751 1.86775 48.756C2.15205 48.6334 2.47593 48.5721 2.83941 48.5721C3.20648 48.5685 3.53036 48.6262 3.81107 48.7452C4.09177 48.8642 4.31669 49.0265 4.48583 49.2321C4.65497 49.4377 4.75753 49.6721 4.79352 49.9354L4.80432 50.0003H5.53846L5.53306 49.93C5.50427 49.5441 5.37292 49.1978 5.139 48.8913C4.90508 48.5847 4.59199 48.3413 4.19973 48.1609C3.81107 47.9806 3.36302 47.8904 2.8556 47.8904C2.34098 47.8904 1.88214 47.9842 1.47908 48.1718C1.07962 48.3557 0.766532 48.6082 0.539811 48.9291C0.31309 49.2501 0.19973 49.618 0.19973 50.0328V50.0382C0.19973 50.5792 0.374269 51.0192 0.723347 51.3582C1.07602 51.6973 1.64103 51.9551 2.41835 52.1319L3.22807 52.3158C3.82906 52.4529 4.26271 52.644 4.52901 52.8893C4.79892 53.1309 4.93387 53.4339 4.93387 53.7981V53.809C4.93387 54.1011 4.8475 54.3626 4.67476 54.5934C4.50562 54.8206 4.26991 54.9992 3.96761 55.129C3.66532 55.2552 3.31624 55.3183 2.92038 55.3183C2.51732 55.3183 2.15744 55.257 1.84076 55.1344C1.52407 55.0118 1.26856 54.8423 1.07422 54.6259C0.883491 54.4059 0.77193 54.1498 0.739541 53.8576L0.734143 53.7981H0L0.00539811 53.8576C0.0449843 54.2796 0.187135 54.6511 0.431849 54.9721C0.680162 55.2931 1.01305 55.5456 1.4305 55.7295C1.84795 55.9098 2.33198 56 2.88259 56Z" fill="white"/>
<path d="M7.18489 55.8485H7.87045V49.4647H8.23752L7.39541 48.2096L10.6127 55.8485H11.2551L14.4723 48.2096L13.6302 49.4647H13.9973V55.8485H14.6829V48.0419H13.8408L10.9636 54.8855H10.9042L8.02699 48.0419H7.18489V55.8485Z" fill="white"/>
<path d="M15.9622 55.8485H16.7341L19.2173 48.9941H19.444V48.0419H18.8826L15.9622 55.8485ZM17.2254 53.4519H21.274L21.0418 52.8189H17.4575L17.2254 53.4519ZM21.7544 55.8485H22.5263L19.6113 48.0419H19.2713V48.9941L21.7544 55.8485Z" fill="white"/>
<path d="M23.8057 55.8485H24.5398V52.6512H26.4885C26.5137 52.6512 26.5389 52.6512 26.5641 52.6512C26.5929 52.6512 26.6199 52.6494 26.6451 52.6458L28.4372 55.8485H29.2955L27.4062 52.5322C27.928 52.3951 28.3365 52.1319 28.6316 51.7423C28.9267 51.3528 29.0742 50.8822 29.0742 50.3303V50.3195C29.0742 49.8579 28.9717 49.4575 28.7665 49.1185C28.565 48.7759 28.2771 48.5108 27.9028 48.3232C27.5322 48.1357 27.0931 48.0419 26.5857 48.0419H23.8057V55.8485ZM24.5398 51.9966V48.7019H26.4939C27.0625 48.7019 27.5088 48.848 27.8327 49.1401C28.1565 49.4287 28.3185 49.829 28.3185 50.3412V50.352C28.3185 50.8713 28.1601 51.2753 27.8435 51.5638C27.5304 51.8523 27.0913 51.9966 26.5263 51.9966H24.5398Z" fill="white"/>
<path d="M32.7935 55.8485H33.5277V48.7073H36.1349V48.0419H30.1916V48.7073H32.7935V55.8485Z" fill="white"/>
<path d="M37.1282 55.8972C37.283 55.8972 37.4143 55.8431 37.5223 55.7349C37.6302 55.6267 37.6842 55.4969 37.6842 55.3454C37.6842 55.1903 37.6302 55.0605 37.5223 54.9559C37.4143 54.8477 37.283 54.7936 37.1282 54.7936C36.9771 54.7936 36.8475 54.8477 36.7395 54.9559C36.6316 55.0605 36.5776 55.1903 36.5776 55.3454C36.5776 55.4969 36.6316 55.6267 36.7395 55.7349C36.8475 55.8431 36.9771 55.8972 37.1282 55.8972Z" fill="white"/>
<path d="M42.0513 56C42.5983 56 43.0895 55.9008 43.525 55.7024C43.964 55.5005 44.3257 55.221 44.61 54.8639C44.8943 54.5032 45.0742 54.0831 45.1498 53.6034L45.1552 53.5817L44.4157 53.5871L44.4049 53.6034C44.3257 53.9496 44.1763 54.2526 43.9568 54.5123C43.7409 54.7683 43.4692 54.9667 43.1417 55.1073C42.8178 55.248 42.4543 55.3183 42.0513 55.3183C41.5007 55.3183 41.022 55.1813 40.6154 54.9072C40.2123 54.6295 39.901 54.2381 39.6815 53.7332C39.462 53.2283 39.3522 52.6332 39.3522 51.9479V51.9371C39.3522 51.2518 39.462 50.6585 39.6815 50.1572C39.901 49.6523 40.2123 49.2628 40.6154 48.9887C41.022 48.7109 41.4989 48.5721 42.0459 48.5721C42.4417 48.5721 42.8016 48.6496 43.1255 48.8047C43.453 48.9562 43.7265 49.169 43.946 49.4431C44.1691 49.7172 44.3221 50.0364 44.4049 50.4007L44.4157 50.4331L45.1498 50.4277V50.4115C45.0778 49.921 44.8961 49.4864 44.6046 49.1077C44.3167 48.729 43.9514 48.4314 43.5088 48.215C43.0697 47.9986 42.5821 47.8904 42.0459 47.8904C41.3405 47.8904 40.7287 48.0563 40.2105 48.3882C39.6959 48.7164 39.2982 49.1834 39.0175 49.7893C38.7368 50.3916 38.5965 51.1076 38.5965 51.9371V51.9479C38.5965 52.7775 38.7368 53.4952 39.0175 54.1011C39.2982 54.707 39.6977 55.1759 40.2159 55.5077C40.7341 55.8359 41.3459 56 42.0513 56Z" fill="white"/>
<path d="M49.8785 56C50.6091 56 51.2371 55.8341 51.7625 55.5023C52.2915 55.1705 52.6982 54.7016 52.9825 54.0957C53.2668 53.4898 53.4089 52.7738 53.4089 51.9479V51.9371C53.4089 51.1076 53.265 50.3916 52.9771 49.7893C52.6928 49.1834 52.2861 48.7164 51.7571 48.3882C51.2317 48.0563 50.6055 47.8904 49.8785 47.8904C49.1552 47.8904 48.529 48.0563 48 48.3882C47.4746 48.7164 47.0679 49.1834 46.78 49.7893C46.4921 50.3916 46.3482 51.1076 46.3482 51.9371V51.9479C46.3482 52.7738 46.4903 53.4916 46.7746 54.1011C47.0589 54.707 47.4638 55.1759 47.9892 55.5077C48.5182 55.8359 49.148 56 49.8785 56ZM49.8785 55.3183C49.3063 55.3183 48.8115 55.1795 48.3941 54.9018C47.9802 54.6241 47.6599 54.2327 47.4332 53.7278C47.2101 53.2229 47.0985 52.6296 47.0985 51.9479V51.9371C47.0985 51.2518 47.2119 50.6567 47.4386 50.1518C47.6653 49.6469 47.9856 49.2574 48.3995 48.9832C48.8169 48.7091 49.3099 48.5721 49.8785 48.5721C50.4471 48.5721 50.9384 48.7091 51.3522 48.9832C51.7697 49.2574 52.0918 49.6469 52.3185 50.1518C52.5452 50.6567 52.6586 51.2518 52.6586 51.9371V51.9479C52.6586 52.6296 52.5452 53.2229 52.3185 53.7278C52.0918 54.2327 51.7715 54.6241 51.3576 54.9018C50.9438 55.1795 50.4507 55.3183 49.8785 55.3183Z" fill="white"/>
<path d="M54.9636 55.8485H55.6923V49.3403H56.0702L55.4548 48.9183L60.3131 55.8485H61.0256V48.0419H60.3023V54.5447H59.9244L60.5398 54.9667L55.6923 48.0419H54.9636V55.8485Z" fill="white"/>
<path d="M64.9771 55.8485H65.7112V48.7073H68.3185V48.0419H62.3752V48.7073H64.9771V55.8485Z" fill="white"/>
<path d="M69.668 55.8485H70.4022V52.6512H72.3509C72.3761 52.6512 72.4013 52.6512 72.4264 52.6512C72.4552 52.6512 72.4822 52.6494 72.5074 52.6458L74.2996 55.8485H75.1579L73.2686 52.5322C73.7904 52.3951 74.1988 52.1319 74.4939 51.7423C74.789 51.3528 74.9366 50.8822 74.9366 50.3303V50.3195C74.9366 49.8579 74.834 49.4575 74.6289 49.1185C74.4273 48.7759 74.1394 48.5108 73.7652 48.3232C73.3945 48.1357 72.9555 48.0419 72.448 48.0419H69.668V55.8485ZM70.4022 51.9966V48.7019H72.3563C72.9249 48.7019 73.3711 48.848 73.695 49.1401C74.0189 49.4287 74.1808 49.829 74.1808 50.3412V50.352C74.1808 50.8713 74.0225 51.2753 73.7058 51.5638C73.3927 51.8523 72.9537 51.9966 72.3887 51.9966H70.4022Z" fill="white"/>
<path d="M75.9892 55.8485H76.7611L79.2443 48.9941H79.471V48.0419H78.9096L75.9892 55.8485ZM77.2524 53.4519H81.3009L81.0688 52.8189H77.4845L77.2524 53.4519ZM81.7814 55.8485H82.5533L79.6383 48.0419H79.2982V48.9941L81.7814 55.8485Z" fill="white"/>
<path d="M86.6289 56C87.1759 56 87.6671 55.9008 88.1026 55.7024C88.5416 55.5005 88.9033 55.221 89.1876 54.8639C89.4719 54.5032 89.6518 54.0831 89.7274 53.6034L89.7328 53.5817L88.9932 53.5871L88.9825 53.6034C88.9033 53.9496 88.7539 54.2526 88.5344 54.5123C88.3185 54.7683 88.0468 54.9667 87.7193 55.1073C87.3954 55.248 87.0319 55.3183 86.6289 55.3183C86.0783 55.3183 85.5996 55.1813 85.193 54.9072C84.7899 54.6295 84.4786 54.2381 84.2591 53.7332C84.0396 53.2283 83.9298 52.6332 83.9298 51.9479V51.9371C83.9298 51.2518 84.0396 50.6585 84.2591 50.1572C84.4786 49.6523 84.7899 49.2628 85.193 48.9887C85.5996 48.7109 86.0765 48.5721 86.6235 48.5721C87.0193 48.5721 87.3792 48.6496 87.7031 48.8047C88.0306 48.9562 88.3041 49.169 88.5236 49.4431C88.7467 49.7172 88.8997 50.0364 88.9825 50.4007L88.9932 50.4331L89.7274 50.4277V50.4115C89.6554 49.921 89.4737 49.4864 89.1822 49.1077C88.8943 48.729 88.529 48.4314 88.0864 48.215C87.6473 47.9986 87.1597 47.8904 86.6235 47.8904C85.9181 47.8904 85.3063 48.0563 84.7881 48.3882C84.2735 48.7164 83.8758 49.1834 83.5951 49.7893C83.3144 50.3916 83.1741 51.1076 83.1741 51.9371V51.9479C83.1741 52.7775 83.3144 53.4952 83.5951 54.1011C83.8758 54.707 84.2753 55.1759 84.7935 55.5077C85.3117 55.8359 85.9235 56 86.6289 56Z" fill="white"/>
<path d="M92.9932 55.8485H93.7274V48.7073H96.3347V48.0419H90.3914V48.7073H92.9932V55.8485Z" fill="white"/>
<path d="M97.3279 55.8972C97.4827 55.8972 97.614 55.8431 97.722 55.7349C97.83 55.6267 97.8839 55.4969 97.8839 55.3454C97.8839 55.1903 97.83 55.0605 97.722 54.9559C97.614 54.8477 97.4827 54.7936 97.3279 54.7936C97.1768 54.7936 97.0472 54.8477 96.9393 54.9559C96.8313 55.0605 96.7773 55.1903 96.7773 55.3454C96.7773 55.4969 96.8313 55.6267 96.9393 55.7349C97.0472 55.8431 97.1768 55.8972 97.3279 55.8972Z" fill="white"/>
<path d="M102.262 56C102.823 56 103.314 55.9062 103.735 55.7187C104.157 55.5311 104.482 55.2678 104.713 54.9288C104.946 54.5862 105.063 54.1877 105.063 53.7332V53.7224C105.063 53.3545 104.986 53.0353 104.831 52.7648C104.677 52.4943 104.432 52.2653 104.097 52.0778C103.766 51.8866 103.332 51.7297 102.796 51.6071L101.981 51.4232C101.398 51.2933 100.975 51.1148 100.713 50.8876C100.453 50.6567 100.324 50.3682 100.324 50.022V50.0166C100.324 49.7244 100.407 49.472 100.572 49.2592C100.738 49.0428 100.963 48.8751 101.247 48.756C101.531 48.6334 101.855 48.5721 102.219 48.5721C102.586 48.5685 102.91 48.6262 103.19 48.7452C103.471 48.8642 103.696 49.0265 103.865 49.2321C104.034 49.4377 104.137 49.6721 104.173 49.9354L104.184 50.0003H104.918L104.912 49.93C104.883 49.5441 104.752 49.1978 104.518 48.8913C104.284 48.5847 103.971 48.3413 103.579 48.1609C103.19 47.9806 102.742 47.8904 102.235 47.8904C101.72 47.8904 101.261 47.9842 100.858 48.1718C100.459 48.3557 100.146 48.6082 99.919 48.9291C99.6923 49.2501 99.5789 49.618 99.5789 50.0328V50.0382C99.5789 50.5792 99.7535 51.0192 100.103 51.3582C100.455 51.6973 101.02 51.9551 101.798 52.1319L102.607 52.3158C103.208 52.4529 103.642 52.644 103.908 52.8893C104.178 53.1309 104.313 53.4339 104.313 53.7981V53.809C104.313 54.1011 104.227 54.3626 104.054 54.5934C103.885 54.8206 103.649 54.9992 103.347 55.129C103.045 55.2552 102.695 55.3183 102.3 55.3183C101.897 55.3183 101.537 55.257 101.22 55.1344C100.903 55.0118 100.648 54.8423 100.453 54.6259C100.263 54.4059 100.151 54.1498 100.119 53.8576L100.113 53.7981H99.3792L99.3846 53.8576C99.4242 54.2796 99.5664 54.6511 99.8111 54.9721C100.059 55.2931 100.392 55.5456 100.81 55.7295C101.227 55.9098 101.711 56 102.262 56Z" fill="white"/>
<path d="M106.559 55.8485H107.293V52.1805H111.854V55.8485H112.588V48.0419H111.854V51.5151H107.293V48.0419H106.559V55.8485Z" fill="white"/>
<path d="M117.679 56C118.409 56 119.037 55.8341 119.563 55.5023C120.092 55.1705 120.498 54.7016 120.783 54.0957C121.067 53.4898 121.209 52.7738 121.209 51.9479V51.9371C121.209 51.1076 121.065 50.3916 120.777 49.7893C120.493 49.1834 120.086 48.7164 119.557 48.3882C119.032 48.0563 118.406 47.8904 117.679 47.8904C116.955 47.8904 116.329 48.0563 115.8 48.3882C115.275 48.7164 114.868 49.1834 114.58 49.7893C114.292 50.3916 114.148 51.1076 114.148 51.9371V51.9479C114.148 52.7738 114.291 53.4916 114.575 54.1011C114.859 54.707 115.264 55.1759 115.789 55.5077C116.318 55.8359 116.948 56 117.679 56ZM117.679 55.3183C117.107 55.3183 116.612 55.1795 116.194 54.9018C115.78 54.6241 115.46 54.2327 115.233 53.7278C115.01 53.2229 114.899 52.6296 114.899 51.9479V51.9371C114.899 51.2518 115.012 50.6567 115.239 50.1518C115.466 49.6469 115.786 49.2574 116.2 48.9832C116.617 48.7091 117.11 48.5721 117.679 48.5721C118.247 48.5721 118.739 48.7091 119.152 48.9832C119.57 49.2574 119.892 49.6469 120.119 50.1518C120.345 50.6567 120.459 51.2518 120.459 51.9371V51.9479C120.459 52.6296 120.345 53.2229 120.119 53.7278C119.892 54.2327 119.572 54.6241 119.158 54.9018C118.744 55.1795 118.251 55.3183 117.679 55.3183Z" fill="white"/>
<path d="M123.131 52.9055H125.501C125.997 52.9055 126.433 52.8045 126.807 52.6025C127.181 52.3969 127.473 52.112 127.682 51.7477C127.894 51.3799 128 50.9543 128 50.471V50.4602C128 49.9769 127.894 49.5531 127.682 49.1888C127.473 48.8246 127.181 48.5432 126.807 48.3449C126.433 48.1429 125.997 48.0419 125.501 48.0419H123.131V48.7019H125.328C125.929 48.7019 126.399 48.8588 126.737 49.1726C127.079 49.4828 127.25 49.9138 127.25 50.4656V50.4764C127.25 51.0282 127.079 51.461 126.737 51.7748C126.399 52.0886 125.929 52.2455 125.328 52.2455H123.131V52.9055ZM122.764 55.8485H123.498V48.0419H122.764V55.8485Z" fill="white"/>
</svg>
