<svg width="228" height="31" viewBox="0 0 228 31" fill="none" xmlns="http://www.w3.org/2000/svg">
<path d="M24.1613 5.2635C24.1613 5.2635 26.4277 4.37975 26.2388 6.526C26.1759 7.40976 25.6093 10.5029 25.1686 13.8485L23.6576 23.7592C23.6576 23.7592 23.5317 25.2111 22.3985 25.4636C21.2652 25.716 19.5655 24.5798 19.2506 24.3273C18.9988 24.138 14.529 21.2973 12.955 19.9086C12.5143 19.5298 12.0107 18.7723 13.018 17.8885L19.6284 11.576C20.3839 10.8185 21.1394 9.05103 17.9915 11.1973L9.17764 17.1942C9.17764 17.1942 8.17034 17.8254 6.28168 17.2573L2.1895 15.9948C2.1895 15.9948 0.67854 15.0479 3.25975 14.101C9.55541 11.1341 17.299 8.1041 24.1613 5.2635Z" fill="white"/>
<path d="M118.469 2.55078H110.544C103.306 2.55078 101.583 4.25119 101.583 11.3851V19.2098C101.583 26.3569 103.292 28.0574 110.531 28.0574H118.456C125.694 28.0574 127.417 26.3702 127.417 19.223V11.3984C127.417 4.25119 125.708 2.55078 118.469 2.55078ZM122.438 20.7508H120.555C119.842 20.7508 119.626 20.1795 118.348 18.9175C117.231 17.8548 116.76 17.7219 116.478 17.7219C116.088 17.7219 115.98 17.8281 115.98 18.3596V20.0334C115.98 20.4851 115.832 20.7508 114.635 20.7508C113.473 20.6737 112.346 20.3252 111.347 19.7339C110.348 19.1426 109.506 18.3255 108.889 17.3499C107.426 15.5516 106.408 13.4409 105.916 11.1858C105.916 10.9068 106.023 10.6544 106.562 10.6544H108.445C108.93 10.6544 109.105 10.867 109.293 11.3585C110.208 14.0155 111.769 16.327 112.401 16.327C112.643 16.327 112.751 16.2207 112.751 15.6229V12.8862C112.67 11.6375 111.997 11.5312 111.997 11.0796C112.006 10.9604 112.062 10.8494 112.152 10.77C112.243 10.6906 112.361 10.6491 112.482 10.6544H115.442C115.845 10.6544 115.98 10.8537 115.98 11.3319V15.0251C115.98 15.4237 116.155 15.5565 116.276 15.5565C116.518 15.5565 116.707 15.4237 117.151 14.9853C118.105 13.8364 118.884 12.5565 119.465 11.1858C119.524 11.0209 119.636 10.8796 119.785 10.7837C119.933 10.6877 120.109 10.6423 120.286 10.6544H122.169C122.734 10.6544 122.855 10.9334 122.734 11.3319C122.049 12.8474 121.201 14.286 120.205 15.6229C120.003 15.9285 119.922 16.0879 120.205 16.4466C120.393 16.7255 121.053 17.2702 121.497 17.7883C122.142 18.4244 122.679 19.1603 123.084 19.967C123.246 20.4851 122.977 20.7508 122.438 20.7508Z" fill="white"/>
<path d="M219.957 3H209.043C204.608 3 201 6.60827 201 11.0434V21.9566C201 26.3917 204.608 30 209.043 30H219.957C224.392 30 228 26.3917 228 21.9566V11.0434C228 6.60827 224.392 3 219.957 3ZM225.284 21.9566C225.284 24.8987 222.899 27.2838 219.957 27.2838H209.043C206.101 27.2838 203.716 24.8987 203.716 21.9566V11.0434C203.716 8.10126 206.101 5.7162 209.043 5.7162H219.957C222.899 5.7162 225.284 8.10126 225.284 11.0434V21.9566Z" fill="white"/>
<path d="M214.5 9.51685C210.649 9.51685 207.517 12.6495 207.517 16.5C207.517 20.3504 210.649 23.4831 214.5 23.4831C218.351 23.4831 221.483 20.3505 221.483 16.5C221.483 12.6494 218.351 9.51685 214.5 9.51685ZM214.5 20.767C212.143 20.767 210.233 18.8566 210.233 16.5C210.233 14.1434 212.143 12.233 214.5 12.233C216.857 12.233 218.767 14.1434 218.767 16.5C218.767 18.8566 216.857 20.767 214.5 20.767Z" fill="white"/>
<path d="M221.497 11.2425C222.421 11.2425 223.17 10.4934 223.17 9.56926C223.17 8.64514 222.421 7.896 221.497 7.896C220.572 7.896 219.823 8.64514 219.823 9.56926C219.823 10.4934 220.572 11.2425 221.497 11.2425Z" fill="white"/>
</svg>
