<svg width="27" height="27" viewBox="0 0 27 27" fill="none" xmlns="http://www.w3.org/2000/svg">
<path d="M18.9566 0H8.04345C3.60827 0 0 3.60827 0 8.04345V18.9566C0 23.3917 3.60827 27 8.04345 27H18.9566C23.3917 27 27 23.3917 27 18.9566V8.04345C27 3.60827 23.3917 0 18.9566 0ZM24.2838 18.9566C24.2838 21.8987 21.8987 24.2838 18.9566 24.2838H8.04345C5.10131 24.2838 2.7162 21.8987 2.7162 18.9566V8.04345C2.7162 5.10126 5.10131 2.7162 8.04345 2.7162H18.9566C21.8987 2.7162 24.2838 5.10126 24.2838 8.04345V18.9566Z" fill="white"/>
<path d="M13.5 6.51685C9.64949 6.51685 6.51685 9.64949 6.51685 13.5C6.51685 17.3504 9.64949 20.4831 13.5 20.4831C17.3505 20.4831 20.4832 17.3505 20.4832 13.5C20.4832 9.64944 17.3505 6.51685 13.5 6.51685ZM13.5 17.767C11.1434 17.767 9.23305 15.8566 9.23305 13.5C9.23305 11.1434 11.1435 9.23305 13.5 9.23305C15.8566 9.23305 17.767 11.1434 17.767 13.5C17.767 15.8566 15.8566 17.767 13.5 17.767Z" fill="white"/>
<path d="M20.4965 8.24252C21.4206 8.24252 22.1698 7.49337 22.1698 6.56926C22.1698 5.64514 21.4206 4.896 20.4965 4.896C19.5724 4.896 18.8232 5.64514 18.8232 6.56926C18.8232 7.49337 19.5724 8.24252 20.4965 8.24252Z" fill="white"/>
</svg>
