<svg width="28" height="28" viewBox="0 0 28 28" fill="none" xmlns="http://www.w3.org/2000/svg">
<path d="M24.1613 4.2635C24.1613 4.2635 26.4277 3.37975 26.2388 5.526C26.1759 6.40976 25.6093 9.50288 25.1686 12.8485L23.6576 22.7592C23.6576 22.7592 23.5317 24.2111 22.3985 24.4636C21.2652 24.716 19.5655 23.5798 19.2506 23.3273C18.9988 23.138 14.529 20.2973 12.955 18.9086C12.5143 18.5298 12.0107 17.7723 13.018 16.8885L19.6284 10.576C20.3839 9.81853 21.1394 8.05103 17.9915 10.1973L9.17764 16.1942C9.17764 16.1942 8.17034 16.8254 6.28168 16.2573L2.1895 14.9948C2.1895 14.9948 0.67854 14.0479 3.25975 13.101C9.55541 10.1341 17.299 7.1041 24.1613 4.2635Z" fill="white"/>
</svg>
