<svg width="31" height="31" viewBox="0 0 31 31" fill="none" xmlns="http://www.w3.org/2000/svg">
<path d="M19.4692 2.55078H11.5443C4.30551 2.55078 2.58331 4.25119 2.58331 11.3851V19.2098C2.58331 26.3569 4.29211 28.0574 11.5308 28.0574H19.4557C26.6945 28.0574 28.4166 26.3702 28.4166 19.223V11.3984C28.4166 4.25119 26.7078 2.55078 19.4692 2.55078ZM23.4383 20.7508H21.5547C20.8416 20.7508 20.6263 20.1795 19.3481 18.9175C18.2313 17.8548 17.7604 17.7219 17.4778 17.7219C17.0877 17.7219 16.98 17.8281 16.98 18.3596V20.0334C16.98 20.4851 16.832 20.7508 15.6346 20.7508C14.4726 20.6737 13.3457 20.3252 12.3469 19.7339C11.348 19.1426 10.5057 18.3255 9.8893 17.3499C8.42598 15.5516 7.40783 13.4409 6.91581 11.1858C6.91581 10.9068 7.02342 10.6544 7.56164 10.6544H9.44529C9.92967 10.6544 10.1046 10.867 10.2929 11.3585C11.2078 14.0155 12.7687 16.327 13.401 16.327C13.6432 16.327 13.7508 16.2207 13.7508 15.6229V12.8862C13.6701 11.6375 12.9974 11.5312 12.9974 11.0796C13.0062 10.9604 13.0618 10.8494 13.1522 10.77C13.2427 10.6906 13.3609 10.6491 13.4818 10.6544H16.4418C16.8455 10.6544 16.98 10.8537 16.98 11.3319V15.0251C16.98 15.4237 17.1549 15.5565 17.276 15.5565C17.5182 15.5565 17.7065 15.4237 18.1506 14.9853C19.1047 13.8364 19.8843 12.5565 20.4648 11.1858C20.5241 11.0209 20.6364 10.8796 20.7846 10.7837C20.9328 10.6877 21.1088 10.6423 21.2856 10.6544H23.1693C23.7344 10.6544 23.8554 10.9334 23.7344 11.3319C23.049 12.8474 22.2009 14.286 21.2049 15.6229C21.003 15.9285 20.9223 16.0879 21.2049 16.4466C21.3932 16.7255 22.0525 17.2702 22.4965 17.7883C23.1424 18.4244 23.6786 19.1603 24.0841 19.967C24.2456 20.4851 23.9765 20.7508 23.4383 20.7508Z" fill="white"/>
</svg>
